<svg xmlns="http://www.w3.org/2000/svg" xmlns:xlink="http://www.w3.org/1999/xlink" fill="none" version="1.1" width="16"
  height="16" viewBox="0 0 16 16">
  <defs>
    <clipPath id="master_svg0_94_3631">
      <rect x="0" y="0" width="16" height="16" rx="0" />
    </clipPath>
  </defs>
  <g clip-path="url(#master_svg0_94_3631)">
    <g>
      <path
        d="M7.52875609375,5.528605505859375C7.78910609375,5.268256105859375,8.21121609375,5.268256105859375,8.471566093749999,5.528605505859375C8.471566093749999,5.528605505859375,12.47156609375,9.528603505859376,12.47156609375,9.528603505859376C12.73189609375,9.788953505859375,12.73189609375,10.211063505859375,12.47156609375,10.471413505859374C12.21122609375,10.731763505859375,11.78909609375,10.731763505859375,11.52876609375,10.471413505859374C11.52876609375,10.471413505859374,8.00016609375,6.942813505859375,8.00016609375,6.942813505859375C8.00016609375,6.942813505859375,4.47156609375,10.471413505859374,4.47156609375,10.471413505859374C4.21121609375,10.731763505859375,3.78910709375,10.731763505859375,3.52875809375,10.471413505859374C3.26840869375,10.211063505859375,3.26840869375,9.788953505859375,3.52875809375,9.528603505859376C3.52875809375,9.528603505859376,7.52875609375,5.528605505859375,7.52875609375,5.528605505859375C7.52875609375,5.528605505859375,7.52875609375,5.528605505859375,7.52875609375,5.528605505859375Z"
        fill-rule="evenodd" fill="#FFFFFF" fill-opacity="1" />
    </g>
  </g>
</svg>