<?xml version="1.0" standalone="no"?>
<!DOCTYPE svg PUBLIC "-//W3C//DTD SVG 20010904//EN"
 "http://www.w3.org/TR/2001/REC-SVG-20010904/DTD/svg10.dtd">
<svg version="1.0" xmlns="http://www.w3.org/2000/svg" viewBox="0 0 500.000000 500.000000" >

<g transform="translate(0.000000,500.000000) scale(0.100000,-0.100000)"
fill="#fff" stroke="none">
<path d="M2870 2840 c-74 -9 -123 -34 -165 -83 -39 -46 -49 -83 -43 -165 8
-108 51 -140 260 -192 129 -32 167 -50 169 -78 3 -39 -4 -58 -27 -82 -20 -21
-35 -25 -97 -28 -98 -5 -142 13 -165 68 l-17 40 -69 0 -69 0 5 -45 c6 -53 47
-116 92 -145 122 -75 341 -61 433 28 79 77 85 221 12 292 -33 31 -74 47 -210
81 -142 35 -168 46 -175 75 -16 63 24 105 108 112 77 6 124 -16 146 -68 l17
-40 73 0 c39 0 72 4 72 8 0 5 -7 31 -15 59 -36 121 -166 184 -335 163z"/>
<path d="M1934 2816 c-3 -8 -4 -133 -2 -278 l3 -263 28 -57 c20 -41 41 -65 73
-87 123 -81 351 -59 428 42 50 66 56 106 56 394 l0 263 -74 0 -74 0 -4 -268
c-3 -239 -5 -271 -21 -296 -22 -33 -73 -56 -124 -56 -50 0 -82 18 -110 59 -23
33 -23 40 -23 297 l0 264 -75 0 c-57 0 -77 -4 -81 -14z"/>
<path d="M3370 2466 l0 -366 176 0 c198 0 240 7 304 54 89 65 136 194 128 355
-7 149 -56 239 -156 288 -55 27 -63 28 -254 31 l-198 4 0 -366z m370 216 c57
-28 85 -96 85 -207 0 -108 -20 -170 -71 -215 -34 -29 -38 -30 -134 -30 l-100
0 0 235 0 235 93 0 c68 0 101 -5 127 -18z"/>
<path d="M1300 2661 c-59 -18 -129 -63 -173 -110 -141 -150 -149 -354 -18
-446 40 -28 49 -30 136 -30 91 0 95 1 185 47 91 46 91 46 100 24 15 -42 67
-76 113 -76 51 1 82 17 108 56 25 38 24 44 -5 44 -14 0 -30 -10 -39 -24 -9
-13 -25 -26 -37 -29 -17 -4 -24 1 -36 28 -8 19 -14 56 -14 83 0 42 7 60 44
115 41 62 106 209 106 241 0 22 -20 30 -34 15 -7 -8 -21 -36 -31 -64 -10 -27
-32 -77 -48 -110 l-31 -60 -8 50 c-4 28 -10 64 -13 81 -10 56 -64 124 -119
150 -52 24 -133 31 -186 15z m154 -71 c35 -43 45 -85 52 -235 l6 -130 -54 -36
c-176 -118 -328 -94 -328 51 0 93 50 250 101 314 32 40 87 65 146 66 45 0 54
-4 77 -30z"/>
</g>
</svg>
