<?xml version="1.0" encoding="iso-8859-1"?>
<!-- Generator: Adobe Illustrator 19.0.0, SVG Export Plug-In . SVG Version: 6.00 Build 0)  -->
<svg version="1.1" id="Layer_1" xmlns="http://www.w3.org/2000/svg" xmlns:xlink="http://www.w3.org/1999/xlink" x="0px" y="0px"
	 viewBox="0 0 512 512" style="enable-background:new 0 0 512 512;" xml:space="preserve">
<path style="fill:#FED76E;" d="M503.916,256c0,136.92-110.996,247.916-247.916,247.916S8.084,392.92,8.084,256
	S119.08,8.084,256,8.084S503.916,119.08,503.916,256z"/>
<path style="fill:#FEAF50;" d="M433.083,256c0,97.8-79.282,177.083-177.083,177.083S78.917,353.8,78.917,256
	S158.2,78.917,256,78.917S433.083,158.2,433.083,256z"/>
<path style="fill:#FEF184;" d="M349.777,80.034c-15.031,0-27.217,12.186-27.217,27.217s12.186,27.217,27.217,27.217
	s27.217-12.186,27.217-27.217S364.808,80.034,349.777,80.034z"/>
<path style="fill:#FFFFFF;" d="M264.084,469.423c0,4.465-3.62,8.084-8.084,8.084c-105.504,0-196.895-75.009-217.305-178.355
	c-0.866-4.379,1.984-8.632,6.365-9.497c4.374-0.866,8.633,1.984,9.497,6.365C73.476,391.813,158.195,461.339,256,461.339
	C260.465,461.339,264.084,464.958,264.084,469.423z"/>
<path d="M256,382.14c4.465,0,8.084-3.62,8.084-8.084v-15.527h15.527c30.496,0,55.307-24.811,55.307-55.307
	s-24.811-55.306-55.307-55.306h-15.527V169.64h39.138c4.465,0,8.084-3.62,8.084-8.084c0-4.465-3.62-8.084-8.084-8.084h-39.138
	v-15.527c0-4.465-3.62-8.084-8.084-8.084c-4.465,0-8.084,3.62-8.084,8.084v15.527h-15.527c-30.496,0-55.307,24.811-55.307,55.307
	s24.811,55.306,55.307,55.306h15.527v78.276h-39.138c-4.465,0-8.084,3.62-8.084,8.084s3.62,8.084,8.084,8.084h39.138v15.527
	C247.916,378.52,251.535,382.14,256,382.14z M264.084,264.084h15.527c21.581,0,39.138,17.558,39.138,39.138
	c0,21.581-17.558,39.138-39.138,39.138h-15.527V264.084z M232.389,247.916c-21.581,0-39.138-17.558-39.138-39.138
	s17.558-39.138,39.138-39.138h15.527v78.277H232.389z M441.167,256c0,102.101-83.066,185.167-185.167,185.167
	S70.833,358.101,70.833,256S153.899,70.833,256,70.833c29.836,0,59.487,7.265,85.748,21.01c3.956,2.071,5.484,6.956,3.414,10.912
	c-2.072,3.955-6.957,5.483-10.911,3.414C310.294,93.629,283.235,87.001,256,87.001c-93.186,0-168.999,75.812-168.999,168.999
	S162.814,424.999,256,424.999S424.999,349.186,424.999,256c0-52.56-23.833-101.227-65.388-133.522
	c-3.526-2.74-4.163-7.818-1.423-11.344c2.74-3.526,7.82-4.162,11.344-1.423C415.056,145.091,441.167,198.411,441.167,256z
	 M437.019,74.981C388.667,26.628,324.379,0,256,0S123.333,26.628,74.981,74.981S0,187.62,0,256s26.628,132.667,74.981,181.019
	S187.62,512,256,512s132.667-26.628,181.019-74.981S512,324.379,512,256S485.372,123.333,437.019,74.981z M256,495.832
	C123.756,495.832,16.168,388.244,16.168,256S123.756,16.168,256,16.168S495.832,123.756,495.832,256S388.244,495.832,256,495.832z"
	/>
<g>
</g>
<g>
</g>
<g>
</g>
<g>
</g>
<g>
</g>
<g>
</g>
<g>
</g>
<g>
</g>
<g>
</g>
<g>
</g>
<g>
</g>
<g>
</g>
<g>
</g>
<g>
</g>
<g>
</g>
</svg>
