<svg xmlns="http://www.w3.org/2000/svg" xmlns:xlink="http://www.w3.org/1999/xlink" fill="none" version="1.1" width="24"
  height="24" viewBox="0 0 24 24">
  <defs>
    <clipPath id="master_svg0_8_4115">
      <rect x="0" y="0" width="24" height="24" rx="0" />
    </clipPath>
  </defs>
  <g clip-path="url(#master_svg0_8_4115)">
    <g>
      <path
        d="M5.292893,5.292893C5.683417,4.9023689,6.31658,4.9023689,6.70711,5.292893C6.70711,5.292893,12,10.58579,12,10.58579C12,10.58579,17.2929,5.292893,17.2929,5.292893C17.6834,4.9023689,18.3166,4.9023689,18.7071,5.292893C19.0976,5.683417,19.0976,6.31658,18.7071,6.70711C18.7071,6.70711,13.41421,12,13.41421,12C13.41421,12,18.7071,17.2929,18.7071,17.2929C19.0976,17.6834,19.0976,18.3166,18.7071,18.7071C18.3166,19.0976,17.6834,19.0976,17.2929,18.7071C17.2929,18.7071,12,13.41421,12,13.41421C12,13.41421,6.70711,18.7071,6.70711,18.7071C6.31658,19.0976,5.683417,19.0976,5.292893,18.7071C4.9023689,18.3166,4.9023689,17.6834,5.292893,17.2929C5.292893,17.2929,10.58579,12,10.58579,12C10.58579,12,5.292893,6.70711,5.292893,6.70711C4.9023689,6.31658,4.9023689,5.683417,5.292893,5.292893C5.292893,5.292893,5.292893,5.292893,5.292893,5.292893Z"
        fill-rule="evenodd" fill="#FFFFFF" fill-opacity="1" />
    </g>
  </g>
</svg>