<svg xmlns="http://www.w3.org/2000/svg" xmlns:xlink="http://www.w3.org/1999/xlink" fill="none" version="1.1" width="16"
  height="16" viewBox="0 0 16 16">
  <g>
    <g>
      <path
        d="M8.00001,16C3.58905,16,0,12.4115,0,8C0,3.58905,3.58902,0,8.00001,0C12.4115,0,16,3.58846,16,8C16,12.4115,12.4115,16,8.00001,16ZM8.00001,1.14794C4.22157,1.14794,1.14794,4.22154,1.14794,8C1.14794,11.7779,4.22154,14.8521,8.00001,14.8521C11.7779,14.8521,14.8521,11.7785,14.8521,8C14.8521,4.22154,11.7779,1.14794,8.00001,1.14794Z"
        fill="#FFFFFF" fill-opacity="1" />
    </g>
    <g>
      <path
        d="M8.86109015625,4.269165125Q8.86109015625,4.353963125,8.84454015625,4.437133125Q8.828000156249999,4.520303125,8.79555015625,4.598643125Q8.76310015625,4.676983125,8.71599015625,4.747493125Q8.66888015625,4.817993125,8.60892015625,4.8779531249999994Q8.548950156250001,4.937923125,8.47845015625,4.985033125Q8.40794015625,5.032143125,8.32960015625,5.064593125Q8.25126015625,5.097043125,8.168090156249999,5.113583125Q8.08492015625,5.130123125,8.00012315625,5.130123125Q7.91532515625,5.130123125,7.83215715625,5.113583125Q7.7489891562499995,5.097043125,7.67064715625,5.064593125Q7.59230415625,5.032143125,7.52179815625,4.985033125Q7.45129115625,4.937923125,7.39133015625,4.8779531249999994Q7.33136915625,4.817993125,7.28425815625,4.747493125Q7.23714765625,4.676983125,7.20469705625,4.598643125Q7.17224645625,4.520303125,7.15570335625,4.437133125Q7.13916015625,4.353963125,7.13916015625,4.269165125Q7.13916015625,4.184368125,7.15570335625,4.101200125Q7.17224645625,4.0180321249999995,7.20469705625,3.939689125Q7.23714765625,3.861347125,7.28425815625,3.790840125Q7.33136915625,3.720334125,7.39133015625,3.660373125Q7.45129115625,3.600412125,7.52179815625,3.553301125Q7.59230415625,3.506190525,7.67064715625,3.473739925Q7.7489891562499995,3.441289425,7.83215715625,3.424746225Q7.91532515625,3.408203125,8.00012315625,3.408203125Q8.08492015625,3.408203125,8.168090156249999,3.424746225Q8.25126015625,3.441289425,8.32960015625,3.473739925Q8.40794015625,3.506190525,8.47845015625,3.553301125Q8.548950156250001,3.600412125,8.60892015625,3.660373125Q8.66888015625,3.720334125,8.71599015625,3.790840125Q8.76310015625,3.861347125,8.79555015625,3.939689125Q8.828000156249999,4.0180321249999995,8.84454015625,4.101200125Q8.86109015625,4.184368125,8.86109015625,4.269165125Z"
        fill="#FFFFFF" fill-opacity="1" />
    </g>
    <g>
      <path
        d="M8.00025553125,12.59151203125C7.68341053125,12.59151203125,7.42626953125,12.33496203125,7.42626953125,12.01753203125L7.42626953125,6.85181703125C7.42626953125,6.53497303125,7.68341053125,6.27783203125,8.00025553125,6.27783203125C8.31709953125,6.27783203125,8.57423953125,6.53497303125,8.57423953125,6.85181703125L8.57423953125,12.01753203125C8.57423953125,12.33496203125,8.31709953125,12.59151203125,8.00025553125,12.59151203125Z"
        fill="#FFFFFF" fill-opacity="1" />
    </g>
  </g>
</svg>