<svg xmlns="http://www.w3.org/2000/svg" xmlns:xlink="http://www.w3.org/1999/xlink" fill="none" version="1.1" width="16"
  height="16" viewBox="0 0 16 16">
  <g>
    <path
      d="M15.9911,3.904C15.9911,3.20889,15.6444,2.56178,15.0728,2.18489L11.9644,0.136C11.8287,0.0482888,11.6557,0.0425444,11.5145,0.121061C11.3733,0.199577,11.2869,0.34956,11.2897,0.511111L11.2897,0.608889C11.2897,0.928889,11.4497,1.22756,11.7146,1.40178L11.944,1.55111C12.3404,1.81067,12.5786,2.256,12.5786,2.736L12.5786,4.36889C12.5786,5.24978,13.2782,5.96445,14.1413,5.96445C14.3813,5.96445,14.5786,6.16444,14.5786,6.41245L14.5786,13.7769C14.5786,14.2124,14.2337,14.5653,13.8071,14.5653L13.2693,14.5653C13.032,14.5634,12.8414,14.3689,12.8444,14.1316L12.8444,9.22578C12.8444,8.23822,12.0595,7.43644,11.0933,7.43644L10.752,7.43644C10.4016,7.43303,10.1205,7.14593,10.1244,6.79555L10.1244,1.42133C10.1244,0.637333,9.50041,0,8.73242,0L1.39111,0C0.623998,0,0,0.637333,0,1.42222L0,15.3493C0,15.7076,0.284443,15.9964,0.632887,15.9964L9.48975,15.9964C9.84357,15.993,10.1275,15.7031,10.1235,15.3493L10.1235,9.51022C10.1235,9.15644,10.4035,8.87022,10.7511,8.87022L10.7946,8.87022C11.1413,8.87022,11.4222,9.15644,11.4222,9.51022L11.4222,15.0178C11.4222,15.5582,11.8506,15.9956,12.3795,15.9956L15.168,16C15.6324,15.9951,16.0049,15.6146,16,15.1502L15.9911,3.904ZM7.04264,9.17956L3.06132,9.17956C2.84994,9.17663,2.68068,9.0034,2.68266,8.792L2.68266,7.70756C2.68266,7.49422,2.85332,7.32,3.06132,7.32L7.04264,7.32C7.25153,7.32,7.4222,7.49422,7.4222,7.70756L7.4222,8.792C7.4222,9.00533,7.25153,9.17956,7.04264,9.17956ZM8.51197,5.22844C8.51197,5.44178,8.34131,5.616,8.13242,5.616L1.99111,5.616C1.77972,5.61307,1.61046,5.43984,1.61244,5.22844L1.61244,2.13067C1.61244,1.91733,1.78311,1.74311,1.99111,1.74311L8.13331,1.74311C8.3422,1.74311,8.51286,1.91733,8.51286,2.13067L8.51286,5.22844L8.51197,5.22844Z"
      fill="#8247E5" fill-opacity="1" />
  </g>
</svg>