<svg xmlns="http://www.w3.org/2000/svg" xmlns:xlink="http://www.w3.org/1999/xlink" fill="none" version="1.1"
  width="77.04539489746094" height="77.30819702148438" viewBox="0 0 77.04539489746094 77.30819702148438">
  <g>
    <path
      d="M38.5227,0C17.2467,0,0,17.3057,0,38.6541C0,60.0025,17.2467,77.3082,38.5227,77.3082C59.7978,77.3082,77.0454,60.0025,77.0454,38.6541C77.0454,17.3057,59.7982,0,38.5227,0ZM55.5831,31.7182L37.2474,50.1624L37.2474,50.1606C36.693,50.7186,35.9302,51.0615,35.0829,51.0615C34.2392,51.0615,33.4733,50.715,32.9202,50.1606L20.7382,37.8923C20.1856,37.3387,19.8445,36.5737,19.8445,35.7282C19.8445,34.0317,21.2148,32.6596,22.9005,32.6596C23.746,32.6596,24.5106,33.0043,25.065,33.5606L35.0829,43.6514L51.2563,27.3839C51.8094,26.8281,52.5771,26.4856,53.4204,26.4856C55.1065,26.4856,56.475,27.8582,56.475,29.5506C56.475,30.3975,56.1339,31.1638,55.5831,31.7182Z"
      fill="#2CFFA7" fill-opacity="1" />
  </g>
</svg>