<svg xmlns="http://www.w3.org/2000/svg" xmlns:xlink="http://www.w3.org/1999/xlink" fill="none" version="1.1" width="18"
  height="18" viewBox="0 0 18 18">
  <g>
    <g>
      <g>
        <g>
          <path
            d="M9,17.0625C4.5525,17.0625,0.9375,13.4475,0.9375,9C0.9375,4.5525,4.5525,0.9375,9,0.9375C13.4475,0.9375,17.0625,4.5525,17.0625,9C17.0625,13.4475,13.4475,17.0625,9,17.0625C9,17.0625,9,17.0625,9,17.0625ZM9,2.0625C5.175,2.0625,2.0625,5.175,2.0625,9C2.0625,12.825,5.175,15.9375,9,15.9375C12.825,15.9375,15.9375,12.825,15.9375,9C15.9375,5.175,12.825,2.0625,9,2.0625C9,2.0625,9,2.0625,9,2.0625Z"
            fill="#F75D5D" fill-opacity="1" />
        </g>
        <g>
          <path
            d="M6.877500457763672,11.685014531250001C6.735000457763672,11.685014531250001,6.592500457763672,11.632524531249999,6.480000457763672,11.52001453125C6.262500457763672,11.30252453125,6.262500457763672,10.942524531250001,6.480000457763672,10.72501453125C6.480000457763672,10.72501453125,10.724995457763672,6.48001953125,10.724995457763672,6.48001953125C10.942505457763673,6.26251953125,11.302505457763672,6.26251953125,11.519995457763672,6.48001953125C11.737495457763671,6.69751953125,11.737495457763671,7.05751853125,11.519995457763672,7.27501953125C11.519995457763672,7.27501953125,7.275000457763672,11.52001453125,7.275000457763672,11.52001453125C7.170000457763672,11.632524531249999,7.020000457763672,11.685014531250001,6.877500457763672,11.685014531250001C6.877500457763672,11.685014531250001,6.877500457763672,11.685014531250001,6.877500457763672,11.685014531250001Z"
            fill="#F75D5D" fill-opacity="1" />
        </g>
        <g>
          <path
            d="M11.122495457763673,11.685014531250001C10.98000545776367,11.685014531250001,10.837505457763672,11.632524531249999,10.724995457763672,11.52001453125C10.724995457763672,11.52001453125,6.480000457763672,7.27501953125,6.480000457763672,7.27501953125C6.262500457763672,7.05751853125,6.262500457763672,6.69751953125,6.480000457763672,6.48001953125C6.697500457763672,6.26251953125,7.057499457763672,6.26251953125,7.275000457763672,6.48001953125C7.275000457763672,6.48001953125,11.519995457763672,10.72501453125,11.519995457763672,10.72501453125C11.737495457763671,10.942524531250001,11.737495457763671,11.30252453125,11.519995457763672,11.52001453125C11.407495457763673,11.632524531249999,11.264995457763671,11.685014531250001,11.122495457763673,11.685014531250001C11.122495457763673,11.685014531250001,11.122495457763673,11.685014531250001,11.122495457763673,11.685014531250001Z"
            fill="#F75D5D" fill-opacity="1" />
        </g>
        <g style="opacity:0;"></g>
      </g>
    </g>
  </g>
</svg>